# xmcd CD database file
# Copyright (C) 1997 Ti Kan
#
# Track frame offsets:
#  180
#  11956
#  25146
#  33506
#  45462
#  57364
#  69614
#
# Disc length: 1170 seconds
#
# Revision: 1
# Processed by: cddbd v1.4b41PL1 Copyright (c) Steve Scherf et al.
# Submitted via: CDWizzard Release:4.24
#
DISCID=5a049007
DTITLE=Earl C. Whitehead and the Grievous Angels - Angels and Inbreds
DYEAR=1900
DGENRE=
TTITLE0=Wine Women and Wrong
TTITLE1=Going Once, Going Twice
TTITLE2=She's Lost Her Head
TTITLE3=Where Sinners Go
TTITLE4=Under the Lights
TTITLE5=I Am a Pilgrim
TTITLE6=Guilty Hand
EXTD=
EXTT0=
EXTT1=
EXTT2=
EXTT3=
EXTT4=
EXTT5=
EXTT6=
PLAYORDER=
